<svg xmlns="http://www.w3.org/2000/svg" xmlns:xlink="http://www.w3.org/1999/xlink" width="60" height="112" viewBox="0 0 60 112">
  <defs>
    <path id="p-a" d="M45,26.25 C45,15.8946356 36.6053644,7.5 26.25,7.5 C15.8946356,7.5 7.5,15.8946356 7.5,26.25 C7.5,36.6053644 15.8946356,45 26.25,45 C36.6053644,45 45,36.6053644 45,26.25 Z M0,26.25 C0,11.7525 11.7525,1.33226763e-15 26.25,0 C40.7475,0 52.5,11.7525 52.5,26.25 C52.5,40.7475 40.7475,52.5 26.25,52.5 C11.7525,52.5 0,40.7475 0,26.25 Z"/>
    <path id="p-b" d="M51.3618667,0 L55.647581,4.26325641e-14 L57.8405955,3.77895796 L55.7142857,7.5 L4.28571429,7.5 L2.15940455,3.77895796 L4.35241902,0 L8.6381333,0 L34.3190667,44.9416334 L32.1263097,48.778958 L27.8736903,48.778958 L25.6809333,44.9416334 L51.3618667,0 Z M30,52.5 L0,0 L60,0 L30,52.5 Z"/>
  </defs>
  <g fill="none" fill-rule="evenodd">
    <g transform="translate(3.75)">
      <use fill="#51AA55" xlink:href="#p-a"/>
    </g>
    <g transform="translate(0 58.875)">
      <use fill="#F6A807" xlink:href="#p-b"/>
    </g>
  </g>
</svg>
