<svg xmlns="http://www.w3.org/2000/svg" xmlns:xlink="http://www.w3.org/1999/xlink" width="30" height="56" viewBox="0 0 30 56">
  <defs>
    <path id="p-a" d="M22.5,13.1986532 C22.5,7.99191555 18.3026822,3.77104377 13.125,3.77104377 C7.94731781,3.77104377 3.75,7.99191555 3.75,13.1986532 C3.75,18.4053908 7.94731781,22.6262626 13.125,22.6262626 C18.3026822,22.6262626 22.5,18.4053908 22.5,13.1986532 Z M0,13.1986532 C0,5.90922559 5.87625,6.69871939e-16 13.125,0 C20.37375,0 26.25,5.90922559 26.25,13.1986532 C26.25,20.4880808 20.37375,26.3973064 13.125,26.3973064 C5.87625,26.3973064 0,20.4880808 0,13.1986532 Z"/>
  </defs>
  <g fill="none" fill-rule="evenodd">
    <g transform="translate(1.875)">
      <use fill="#51AA55" xlink:href="#p-a"/>
    </g>
    <path fill="#F6A807" d="M15,26.3973064 L0,0 L30,0 L15,26.3973064 Z M23.5530651,3.77104377 L6.46588374,3.77801256 L15.0107378,18.8154213 L23.5530651,3.77104377 Z" transform="translate(0 29.603)"/>
  </g>
</svg>
